<svg xmlns="http://www.w3.org/2000/svg" viewBox="0 0 591 140" role="img" aria-label="Lucas Guedes, Advogado, OAB/SP 554.377">
<title>Lucas Guedes — Advogado — OAB/SP 554.377</title>
<g transform="translate(-3.2 -3.2) scale(0.16)"><path d="M361 43C290 112 170 137 51 146V475C51 650 182 788 361 866C540 788 671 650 671 475V146C552 137 432 112 361 43Z" fill="none" stroke="#020B2C" stroke-width="22" stroke-miterlimit="10"/><path d="M157 222H582L515 268H205V415L345 357L157 520Z" fill="#020B2C"/><path d="M155 708L478 330L582 300L245 665H518V528L380 598L565 430V708Z" fill="#020B2C"/></g>
<path fill="#020B2C" d="M149.91 28L156.53 28L156.53 66L149.91 66L149.91 28ZM156.37 63.88L170.91 63.88L171.84 66L156.37 66L156.37 63.88ZM174.17 55.69L174.71 55.69L172 66L161.85 66L163.80 63.88Q166.57 63.88 168.58 62.88Q170.59 61.87 171.95 60.00Q173.30 58.13 174.17 55.69L174.17 55.69ZM149.91 62.04L150.07 62.04L150.07 66L145.73 66L145.73 65.46Q145.73 65.46 146.08 65.46Q146.43 65.46 146.43 65.46L146.43 65.46Q147.84 65.46 148.85 64.45Q149.85 63.45 149.91 62.04L149.91 62.04ZM150.07 28L150.07 31.96L149.91 31.96Q149.85 30.55 148.85 29.55Q147.84 28.54 146.43 28.54L146.43 28.54Q146.43 28.54 146.08 28.54Q145.73 28.54 145.73 28.54L145.73 28.54L145.73 28L150.07 28ZM156.53 31.96L156.37 31.96L156.37 28L160.71 28L160.71 28.54Q160.65 28.54 160.33 28.54Q160.00 28.54 160.00 28.54L160.00 28.54Q158.59 28.54 157.59 29.55Q156.58 30.55 156.53 31.96L156.53 31.96ZM182.75 28L189.37 28L189.37 51.89Q189.37 55.74 190.70 58.62Q192.03 61.49 194.47 63.07Q196.92 64.64 200.17 64.64L200.17 64.64Q203.65 64.64 206.15 63.15Q208.64 61.66 210.03 58.97Q211.41 56.28 211.41 52.59L211.41 52.59L211.41 28L214.83 28L214.83 52.37Q214.83 56.72 212.99 59.95Q211.14 63.18 207.69 64.97Q204.25 66.76 199.52 66.76L199.52 66.76Q194.20 66.76 190.43 65.00Q186.66 63.23 184.70 60.00Q182.75 56.77 182.75 52.43L182.75 52.43L182.75 28ZM179.00 28L182.91 28L182.91 31.26L182.75 31.26Q182.75 30.06 181.91 29.30Q181.07 28.54 179.87 28.54L179.87 28.54Q179.87 28.54 179.44 28.54Q179.00 28.54 179.00 28.54L179.00 28.54L179.00 28ZM189.26 28L193.12 28L193.12 28.54Q193.12 28.54 192.68 28.54Q192.25 28.54 192.25 28.54L192.25 28.54Q191.05 28.54 190.21 29.30Q189.37 30.06 189.37 31.26L189.37 31.26L189.26 31.26L189.26 28ZM207.67 28L211.57 28L211.57 31.26L211.41 31.26Q211.41 30.06 210.57 29.30Q209.73 28.54 208.53 28.54L208.53 28.54Q208.53 28.54 208.10 28.54Q207.67 28.54 207.67 28.54L207.67 28.54L207.67 28ZM214.72 28L218.58 28L218.58 28.54Q218.58 28.54 218.14 28.54Q217.71 28.54 217.71 28.54L217.71 28.54Q216.51 28.54 215.67 29.30Q214.83 30.06 214.83 31.26L214.83 31.26L214.72 31.26L214.72 28ZM260.32 50.15L260.76 50.15L260.87 59.21Q259.62 61.33 257.55 63.04Q255.49 64.75 252.53 65.76Q249.57 66.76 245.61 66.76L245.61 66.76Q239.31 66.71 234.54 64.32Q229.76 61.93 227.13 57.50Q224.49 53.08 224.49 46.95L224.49 46.95Q224.49 40.92 227.10 36.50Q229.71 32.07 234.48 29.66Q239.26 27.24 245.83 27.24L245.83 27.24Q250.06 27.24 253.43 28.19Q256.79 29.14 259.13 30.44L259.13 30.44L259.56 39.18L259.07 39.18Q257.72 34.03 254.27 31.66Q250.82 29.30 246.21 29.30L246.21 29.30Q241.76 29.30 238.53 31.45Q235.30 33.59 233.53 37.53Q231.77 41.46 231.77 46.84L231.77 46.84Q231.77 52.21 233.48 56.20Q235.19 60.19 238.31 62.39Q241.43 64.59 245.61 64.70L245.61 64.70Q249.68 64.70 252.70 63.31Q255.71 61.93 257.64 58.73Q259.56 55.52 260.32 50.15L260.32 50.15ZM282.15 35.71L284.70 27.02L301.85 65.67L293.82 65.67L282.15 35.71ZM269.44 62.04L273.03 62.04Q272.59 63.12 272.86 63.88Q273.13 64.64 273.79 65.05Q274.44 65.46 275.09 65.46L275.09 65.46L275.58 65.46L275.58 66L264.18 66L264.18 65.46Q264.18 65.46 264.42 65.46Q264.67 65.46 264.67 65.46L264.67 65.46Q265.91 65.46 267.24 64.67Q268.57 63.88 269.44 62.04L269.44 62.04ZM284.21 27.02L284.70 27.02L284.97 32.72L271.45 65.84L267.76 65.84L281.77 33.65Q281.87 33.43 282.23 32.59Q282.58 31.75 283.04 30.66Q283.50 29.57 283.83 28.57Q284.15 27.57 284.21 27.02L284.21 27.02ZM274.71 52.43L291.05 52.43L291.05 54.49L274.71 54.49L274.71 52.43ZM292.41 62.04L292.41 62.04L300.22 62.04Q301.09 63.88 302.42 64.67Q303.75 65.46 305 65.46L305 65.46Q305 65.46 305.22 65.46Q305.43 65.46 305.43 65.46L305.43 65.46L305.43 66L289.85 66L289.85 65.46L290.34 65.46Q291.37 65.46 292.19 64.56Q293.00 63.67 292.41 62.04ZM320.36 27.24L320.36 27.24Q321.39 27.24 322.81 27.35Q324.22 27.46 325.66 27.65Q327.09 27.84 328.23 28.03Q329.37 28.22 329.81 28.43L329.81 28.43L329.37 35.33L328.83 35.33Q328.83 32.56 326.85 30.93Q324.87 29.30 321.72 29.30L321.72 29.30Q318.57 29.30 316.70 30.93Q314.83 32.56 314.77 34.89L314.77 34.89Q314.66 36.25 315.56 37.53Q316.45 38.80 317.97 39.89L317.97 39.89L328.45 47.65Q330.68 49.12 331.71 51.21Q332.74 53.30 332.63 55.90L332.63 55.90Q332.47 60.90 329.02 63.83Q325.57 66.76 319.66 66.76L319.66 66.76Q317.65 66.76 315.56 66.41Q313.47 66.05 311.73 65.32Q309.99 64.59 308.96 63.56L308.96 63.56Q308.64 62.47 308.69 60.92Q308.75 59.38 309.13 57.72Q309.51 56.07 310.05 54.93L310.05 54.93L310.54 54.93Q310.32 57.69 311.46 59.95Q312.60 62.20 314.80 63.48Q317.00 64.75 319.98 64.70L319.98 64.70Q323.35 64.59 325.38 62.80Q327.42 61.01 327.42 58.18L327.42 58.18Q327.42 56.55 326.55 55.22Q325.68 53.89 323.84 52.81L323.84 52.81L314.01 45.37Q311.51 43.74 310.46 41.44Q309.40 39.13 309.56 36.63L309.56 36.63Q309.72 34.03 311.03 31.88Q312.33 29.74 314.69 28.49Q317.05 27.24 320.36 27.24ZM324.16 27.78L329.86 27.78L329.81 28.92L324.16 28.92L324.16 27.78ZM392.29 50.80L392.29 50.80L392.29 59.76Q391.04 61.39 388.63 63.01Q386.21 64.64 382.79 65.70Q379.37 66.76 375.03 66.76L375.03 66.76Q369.06 66.71 364.50 64.29Q359.94 61.87 357.41 57.45Q354.89 53.03 354.89 46.95L354.89 46.95Q354.89 40.97 357.39 36.52Q359.88 32.07 364.50 29.66Q369.11 27.24 375.25 27.24L375.25 27.24Q378.23 27.24 380.92 27.67Q383.61 28.11 385.86 28.84Q388.11 29.57 389.69 30.44L389.69 30.44L390.12 39.18L389.63 39.18Q388.65 35.65 386.73 33.51Q384.80 31.37 382.14 30.33Q379.48 29.30 376.39 29.30L376.39 29.30Q371.88 29.30 368.70 31.50Q365.53 33.70 363.85 37.69Q362.16 41.68 362.16 47.16L362.16 47.16Q362.16 52.48 363.76 56.42Q365.37 60.35 368.38 62.50Q371.39 64.64 375.52 64.70L375.52 64.70Q377.69 64.70 379.64 64.10Q381.60 63.50 383.20 62.34Q384.80 61.17 385.72 59.54L385.72 59.54L385.78 50.80Q385.78 48.36 383.01 48.36L383.01 48.36L382.14 48.36L382.14 47.81L395.82 47.81L395.82 48.36L395.01 48.36Q392.18 48.36 392.29 50.80ZM404.02 28L410.64 28L410.64 51.89Q410.64 55.74 411.97 58.62Q413.30 61.49 415.74 63.07Q418.19 64.64 421.44 64.64L421.44 64.64Q424.92 64.64 427.41 63.15Q429.91 61.66 431.30 58.97Q432.68 56.28 432.68 52.59L432.68 52.59L432.68 28L436.10 28L436.10 52.37Q436.10 56.72 434.25 59.95Q432.41 63.18 428.96 64.97Q425.51 66.76 420.79 66.76L420.79 66.76Q415.47 66.76 411.70 65.00Q407.93 63.23 405.97 60.00Q404.02 56.77 404.02 52.43L404.02 52.43L404.02 28ZM400.27 28L404.18 28L404.18 31.26L404.02 31.26Q404.02 30.06 403.18 29.30Q402.33 28.54 401.14 28.54L401.14 28.54Q401.14 28.54 400.71 28.54Q400.27 28.54 400.27 28.54L400.27 28.54L400.27 28ZM410.53 28L414.39 28L414.39 28.54Q414.39 28.54 413.95 28.54Q413.52 28.54 413.52 28.54L413.52 28.54Q412.32 28.54 411.48 29.30Q410.64 30.06 410.64 31.26L410.64 31.26L410.53 31.26L410.53 28ZM428.93 28L432.84 28L432.84 31.26L432.68 31.26Q432.68 30.06 431.84 29.30Q431.00 28.54 429.80 28.54L429.80 28.54Q429.80 28.54 429.37 28.54Q428.93 28.54 428.93 28.54L428.93 28.54L428.93 28ZM435.99 28L439.85 28L439.85 28.54Q439.85 28.54 439.41 28.54Q438.98 28.54 438.98 28.54L438.98 28.54Q437.78 28.54 436.94 29.30Q436.10 30.06 436.10 31.26L436.10 31.26L435.99 31.26L435.99 28ZM449.56 28L456.19 28L456.19 66L449.56 66L449.56 28ZM456.02 63.88L470.57 63.88L471.49 66L456.02 66L456.02 63.88ZM456.02 46.24L468.51 46.24L468.51 48.30L456.02 48.30L456.02 46.24ZM456.02 28L471.06 28L471.06 30.12L456.02 30.12L456.02 28ZM473.83 55.69L474.37 55.69L471.66 66L461.51 66L463.46 63.88Q466.23 63.88 468.24 62.88Q470.25 61.87 471.60 60.00Q472.96 58.13 473.83 55.69L473.83 55.69ZM464.00 48.19L468.51 48.19L468.51 52.86L467.97 52.86L467.97 52.27Q467.97 50.58 466.83 49.44Q465.69 48.30 464.00 48.30L464.00 48.30L464.00 48.19ZM467.97 41.68L468.51 41.68L468.51 46.35L464.00 46.35L464.00 46.24Q465.69 46.19 466.83 45.05Q467.97 43.91 467.97 42.22L467.97 42.22L467.97 41.68ZM465.74 29.95L471.06 29.95L471.06 35.60L470.52 35.60L470.52 34.84Q470.52 32.78 469.21 31.45Q467.91 30.12 465.74 30.06L465.74 30.06L465.74 29.95ZM471.06 27.02L471.06 27.02L471.06 28.60L464.44 28Q465.63 28 466.96 27.84Q468.29 27.67 469.43 27.46Q470.57 27.24 471.06 27.02ZM449.56 62.04L449.73 62.04L449.73 66L445.38 66L445.38 65.46Q445.38 65.46 445.74 65.46Q446.09 65.46 446.09 65.46L446.09 65.46Q447.50 65.46 448.50 64.45Q449.51 63.45 449.56 62.04L449.56 62.04ZM449.73 28L449.73 31.96L449.56 31.96Q449.51 30.55 448.50 29.55Q447.50 28.54 446.09 28.54L446.09 28.54Q446.09 28.54 445.74 28.54Q445.38 28.54 445.38 28.54L445.38 28.54L445.38 28L449.73 28ZM486.15 28L499.23 28Q505.42 28 510.01 30.31Q514.60 32.61 517.09 36.90Q519.59 41.19 519.59 47L519.59 47Q519.59 52.81 517.09 57.07Q514.60 61.33 510.01 63.67Q505.42 66 499.23 66L499.23 66L486.75 66L486.69 63.94Q487.73 63.94 489.27 63.94Q490.82 63.94 492.48 63.94Q494.13 63.94 495.57 63.94Q497.01 63.94 497.90 63.94Q498.80 63.94 498.80 63.94L498.80 63.94Q502.98 63.94 505.99 61.85Q509.01 59.76 510.69 55.96Q512.37 52.16 512.37 47L512.37 47Q512.37 41.84 510.69 38.04Q509.01 34.24 505.97 32.15Q502.93 30.06 498.80 30.06L498.80 30.06Q498.80 30.06 497.85 30.06Q496.90 30.06 495.41 30.06Q493.91 30.06 492.18 30.06Q490.44 30.06 488.84 30.06Q487.24 30.06 486.15 30.06L486.15 30.06L486.15 28ZM484.14 28L490.77 28L490.77 66L484.14 66L484.14 28ZM484.14 62.04L484.31 62.04L484.31 66L479.96 66L479.96 65.46Q479.96 65.46 480.32 65.46Q480.67 65.46 480.67 65.46L480.67 65.46Q482.08 65.46 483.08 64.45Q484.09 63.45 484.14 62.04L484.14 62.04ZM484.31 28L484.31 31.96L484.14 31.96Q484.14 30.55 483.11 29.55Q482.08 28.54 480.67 28.54L480.67 28.54Q480.67 28.54 480.34 28.54Q480.02 28.54 480.02 28.54L480.02 28.54L479.96 28L484.31 28ZM529.25 28L535.88 28L535.88 66L529.25 66L529.25 28ZM535.71 63.88L550.26 63.88L551.19 66L535.71 66L535.71 63.88ZM535.71 46.24L548.20 46.24L548.20 48.30L535.71 48.30L535.71 46.24ZM535.71 28L550.75 28L550.75 30.12L535.71 30.12L535.71 28ZM553.52 55.69L554.06 55.69L551.35 66L541.20 66L543.15 63.88Q545.92 63.88 547.93 62.88Q549.94 61.87 551.29 60.00Q552.65 58.13 553.52 55.69L553.52 55.69ZM543.69 48.19L548.20 48.19L548.20 52.86L547.66 52.86L547.66 52.27Q547.66 50.58 546.52 49.44Q545.38 48.30 543.69 48.30L543.69 48.30L543.69 48.19ZM547.66 41.68L548.20 41.68L548.20 46.35L543.69 46.35L543.69 46.24Q545.38 46.19 546.52 45.05Q547.66 43.91 547.66 42.22L547.66 42.22L547.66 41.68ZM545.43 29.95L550.75 29.95L550.75 35.60L550.21 35.60L550.21 34.84Q550.21 32.78 548.91 31.45Q547.60 30.12 545.43 30.06L545.43 30.06L545.43 29.95ZM550.75 27.02L550.75 27.02L550.75 28.60L544.13 28Q545.32 28 546.65 27.84Q547.98 27.67 549.12 27.46Q550.26 27.24 550.75 27.02ZM529.25 62.04L529.42 62.04L529.42 66L525.07 66L525.07 65.46Q525.07 65.46 525.43 65.46Q525.78 65.46 525.78 65.46L525.78 65.46Q527.19 65.46 528.20 64.45Q529.20 63.45 529.25 62.04L529.25 62.04ZM529.42 28L529.42 31.96L529.25 31.96Q529.20 30.55 528.20 29.55Q527.19 28.54 525.78 28.54L525.78 28.54Q525.78 28.54 525.43 28.54Q525.07 28.54 525.07 28.54L525.07 28.54L525.07 28L529.42 28ZM571.92 27.24L571.92 27.24Q572.95 27.24 574.37 27.35Q575.78 27.46 577.22 27.65Q578.65 27.84 579.79 28.03Q580.93 28.22 581.37 28.43L581.37 28.43L580.93 35.33L580.39 35.33Q580.39 32.56 578.41 30.93Q576.43 29.30 573.28 29.30L573.28 29.30Q570.13 29.30 568.26 30.93Q566.39 32.56 566.33 34.89L566.33 34.89Q566.22 36.25 567.12 37.53Q568.01 38.80 569.53 39.89L569.53 39.89L580.01 47.65Q582.24 49.12 583.27 51.21Q584.30 53.30 584.19 55.90L584.19 55.90Q584.03 60.90 580.58 63.83Q577.13 66.76 571.22 66.76L571.22 66.76Q569.21 66.76 567.12 66.41Q565.03 66.05 563.29 65.32Q561.55 64.59 560.52 63.56L560.52 63.56Q560.20 62.47 560.25 60.92Q560.31 59.38 560.69 57.72Q561.07 56.07 561.61 54.93L561.61 54.93L562.10 54.93Q561.88 57.69 563.02 59.95Q564.16 62.20 566.36 63.48Q568.56 64.75 571.54 64.70L571.54 64.70Q574.91 64.59 576.94 62.80Q578.98 61.01 578.98 58.18L578.98 58.18Q578.98 56.55 578.11 55.22Q577.24 53.89 575.40 52.81L575.40 52.81L565.57 45.37Q563.07 43.74 562.02 41.44Q560.96 39.13 561.12 36.63L561.12 36.63Q561.28 34.03 562.59 31.88Q563.89 29.74 566.25 28.49Q568.61 27.24 571.92 27.24ZM575.72 27.78L581.42 27.78L581.37 28.92L575.72 28.92L575.72 27.78Z"/>
<path fill="#020B2C" d="M150.99 91.72L151.79 88.61L159.25 105.85L156.40 105.85L150.99 91.72ZM145.09 104.23L146.57 104.23Q146.40 104.71 146.52 105.05Q146.64 105.39 146.92 105.58Q147.20 105.76 147.49 105.76L147.49 105.76L147.71 105.76L147.71 106L142.73 106L142.73 105.76Q142.73 105.76 142.84 105.76Q142.95 105.76 142.95 105.76L142.95 105.76Q143.51 105.76 144.10 105.41Q144.70 105.05 145.09 104.23L145.09 104.23ZM151.57 88.61L151.79 88.61L151.98 90.72L145.91 105.93L144.33 105.93L150.58 91.33Q150.60 91.28 150.76 90.95Q150.92 90.63 151.10 90.17Q151.28 89.70 151.43 89.27Q151.57 88.83 151.57 88.61L151.57 88.61ZM147.49 99.66L154.92 99.66L154.92 100.49L147.49 100.49L147.49 99.66ZM155.77 104.23L155.77 104.23L158.52 104.23Q158.91 105.05 159.50 105.41Q160.10 105.76 160.65 105.76L160.65 105.76Q160.65 105.76 160.75 105.76Q160.85 105.76 160.85 105.76L160.85 105.76L160.85 106L154.63 106L154.63 105.76L154.85 105.76Q155.34 105.76 155.70 105.36Q156.06 104.96 155.77 104.23ZM167.88 89L173.54 89Q176.23 89 178.23 90.04Q180.22 91.09 181.33 93.01Q182.45 94.93 182.45 97.50L182.45 97.50Q182.45 100.07 181.33 101.98Q180.22 103.89 178.23 104.94Q176.23 106 173.54 106L173.54 106L168.15 106L168.12 105.17Q168.37 105.17 168.96 105.17Q169.56 105.17 170.33 105.17Q171.11 105.17 171.81 105.17Q172.52 105.17 172.98 105.17Q173.44 105.17 173.44 105.17L173.44 105.17Q175.41 105.17 176.87 104.23Q178.32 103.28 179.12 101.56Q179.93 99.83 179.93 97.50L179.93 97.50Q179.93 95.17 179.12 93.44Q178.32 91.72 176.87 90.77Q175.41 89.83 173.44 89.83L173.44 89.83Q173.44 89.83 172.96 89.83Q172.47 89.83 171.73 89.83Q170.99 89.83 170.20 89.83Q169.41 89.83 168.77 89.83Q168.12 89.83 167.88 89.83L167.88 89.83L167.88 89ZM166.98 89L169.24 89L169.24 106L166.98 106L166.98 89ZM166.98 104.23L167.05 104.23L167.05 106L165.11 106L165.11 105.76Q165.11 105.76 165.27 105.76Q165.43 105.76 165.43 105.76L165.43 105.76Q166.06 105.76 166.51 105.31Q166.96 104.86 166.98 104.23L166.98 104.23ZM167.05 89L167.05 90.77L166.98 90.77Q166.98 90.14 166.52 89.69Q166.06 89.24 165.43 89.24L165.43 89.24Q165.43 89.24 165.28 89.24Q165.14 89.24 165.14 89.24L165.14 89.24L165.11 89L167.05 89ZM195.82 103.28L195.00 106.39L187.30 89.15L190.14 89.15L195.82 103.28ZM195.21 106.39L195.00 106.39L194.83 104.28L201.19 89.07L202.74 89.07L196.21 103.67Q196.21 103.72 196.05 104.05Q195.89 104.37 195.70 104.83Q195.51 105.30 195.37 105.73Q195.24 106.17 195.21 106.39L195.21 106.39ZM201.99 90.77L200.51 90.75Q200.78 90.02 200.41 89.63Q200.05 89.24 199.59 89.24L199.59 89.24L199.37 89.24L199.37 89L204.35 89L204.35 89.24Q204.35 89.24 204.24 89.24Q204.13 89.24 204.13 89.24L204.13 89.24Q203.59 89.24 202.99 89.59Q202.38 89.95 201.99 90.77L201.99 90.77ZM190.79 90.75L190.79 90.75L188.03 90.77Q187.66 89.95 187.05 89.59Q186.45 89.24 185.89 89.24L185.89 89.24Q185.89 89.24 185.79 89.24Q185.69 89.24 185.69 89.24L185.69 89.24L185.69 89L191.91 89L191.91 89.24L191.69 89.24Q191.23 89.24 190.88 89.63Q190.53 90.02 190.79 90.75ZM217.01 88.66L217.01 88.66Q219.73 88.66 221.76 89.75Q223.79 90.85 224.92 92.84Q226.05 94.83 226.05 97.50L226.05 97.50Q226.05 100.17 224.92 102.16Q223.79 104.15 221.76 105.25Q219.73 106.34 217.01 106.34L217.01 106.34Q214.34 106.34 212.31 105.25Q210.28 104.15 209.15 102.16Q208.03 100.17 208.03 97.50L208.03 97.50Q208.03 94.83 209.15 92.84Q210.28 90.85 212.31 89.75Q214.34 88.66 217.01 88.66ZM217.01 105.51L217.01 105.51Q218.98 105.51 220.41 104.52Q221.84 103.52 222.65 101.73Q223.45 99.93 223.45 97.50L223.45 97.50Q223.45 95.07 222.65 93.27Q221.84 91.48 220.41 90.48Q218.98 89.49 217.01 89.49L217.01 89.49Q215.09 89.49 213.65 90.48Q212.20 91.48 211.40 93.27Q210.60 95.07 210.60 97.50L210.60 97.50Q210.60 99.93 211.40 101.73Q212.20 103.52 213.65 104.52Q215.09 105.51 217.01 105.51ZM248.21 99.20L248.21 99.20L248.21 103.21Q247.65 103.94 246.63 104.66Q245.61 105.39 244.16 105.87Q242.72 106.34 240.82 106.34L240.82 106.34Q238.20 106.32 236.20 105.22Q234.19 104.13 233.08 102.15Q231.96 100.17 231.96 97.50L231.96 97.50Q231.96 94.83 233.08 92.84Q234.19 90.85 236.20 89.75Q238.20 88.66 240.87 88.66L240.87 88.66Q242.21 88.66 243.35 88.87Q244.49 89.07 245.41 89.42Q246.34 89.78 247.04 90.21L247.04 90.21L247.38 93.88L247.16 93.88Q246.77 92.38 245.92 91.42Q245.07 90.46 243.85 89.97Q242.62 89.49 241.11 89.49L241.11 89.49Q239.10 89.49 237.61 90.48Q236.11 91.48 235.30 93.29Q234.48 95.10 234.48 97.55L234.48 97.55Q234.48 99.93 235.29 101.73Q236.09 103.52 237.53 104.51Q238.98 105.49 240.94 105.51L240.94 105.51Q241.94 105.51 242.88 105.25Q243.81 104.98 244.61 104.49Q245.41 104.01 245.95 103.30L245.95 103.30L245.97 99.20Q245.97 98.11 244.73 98.11L244.73 98.11L244.34 98.11L244.34 97.86L249.78 97.86L249.78 98.11L249.42 98.11Q248.16 98.11 248.21 99.20ZM261.33 91.72L262.13 88.61L269.59 105.85L266.75 105.85L261.33 91.72ZM255.43 104.23L256.91 104.23Q256.74 104.71 256.86 105.05Q256.99 105.39 257.27 105.58Q257.54 105.76 257.84 105.76L257.84 105.76L258.05 105.76L258.05 106L253.08 106L253.08 105.76Q253.08 105.76 253.19 105.76Q253.29 105.76 253.29 105.76L253.29 105.76Q253.85 105.76 254.45 105.41Q255.04 105.05 255.43 104.23L255.43 104.23ZM261.92 88.61L262.13 88.61L262.33 90.72L256.26 105.93L254.68 105.93L260.92 91.33Q260.94 91.28 261.10 90.95Q261.26 90.63 261.44 90.17Q261.62 89.70 261.77 89.27Q261.92 88.83 261.92 88.61L261.92 88.61ZM257.84 99.66L265.27 99.66L265.27 100.49L257.84 100.49L257.84 99.66ZM266.12 104.23L266.12 104.23L268.86 104.23Q269.25 105.05 269.85 105.41Q270.44 105.76 271.00 105.76L271.00 105.76Q271.00 105.76 271.10 105.76Q271.19 105.76 271.19 105.76L271.19 105.76L271.19 106L264.98 106L264.98 105.76L265.19 105.76Q265.68 105.76 266.04 105.36Q266.41 104.96 266.12 104.23ZM278.22 89L283.88 89Q286.58 89 288.57 90.04Q290.56 91.09 291.68 93.01Q292.80 94.93 292.80 97.50L292.80 97.50Q292.80 100.07 291.68 101.98Q290.56 103.89 288.57 104.94Q286.58 106 283.88 106L283.88 106L278.49 106L278.47 105.17Q278.71 105.17 279.31 105.17Q279.90 105.17 280.68 105.17Q281.45 105.17 282.16 105.17Q282.86 105.17 283.32 105.17Q283.79 105.17 283.79 105.17L283.79 105.17Q285.75 105.17 287.21 104.23Q288.67 103.28 289.47 101.56Q290.27 99.83 290.27 97.50L290.27 97.50Q290.27 95.17 289.47 93.44Q288.67 91.72 287.21 90.77Q285.75 89.83 283.79 89.83L283.79 89.83Q283.79 89.83 283.30 89.83Q282.81 89.83 282.07 89.83Q281.33 89.83 280.54 89.83Q279.75 89.83 279.11 89.83Q278.47 89.83 278.22 89.83L278.22 89.83L278.22 89ZM277.33 89L279.58 89L279.58 106L277.33 106L277.33 89ZM277.33 104.23L277.40 104.23L277.40 106L275.46 106L275.46 105.76Q275.46 105.76 275.61 105.76Q275.77 105.76 275.77 105.76L275.77 105.76Q276.40 105.76 276.85 105.31Q277.30 104.86 277.33 104.23L277.33 104.23ZM277.40 89L277.40 90.77L277.33 90.77Q277.33 90.14 276.86 89.69Q276.40 89.24 275.77 89.24L275.77 89.24Q275.77 89.24 275.63 89.24Q275.48 89.24 275.48 89.24L275.48 89.24L275.46 89L277.40 89ZM307.87 88.66L307.87 88.66Q310.59 88.66 312.61 89.75Q314.64 90.85 315.77 92.84Q316.90 94.83 316.90 97.50L316.90 97.50Q316.90 100.17 315.77 102.16Q314.64 104.15 312.61 105.25Q310.59 106.34 307.87 106.34L307.87 106.34Q305.19 106.34 303.17 105.25Q301.14 104.15 300.01 102.16Q298.88 100.17 298.88 97.50L298.88 97.50Q298.88 94.83 300.01 92.84Q301.14 90.85 303.17 89.75Q305.19 88.66 307.87 88.66ZM307.87 105.51L307.87 105.51Q309.83 105.51 311.27 104.52Q312.70 103.52 313.50 101.73Q314.30 99.93 314.30 97.50L314.30 97.50Q314.30 95.07 313.50 93.27Q312.70 91.48 311.27 90.48Q309.83 89.49 307.87 89.49L307.87 89.49Q305.95 89.49 304.50 90.48Q303.06 91.48 302.26 93.27Q301.45 95.07 301.45 97.50L301.45 97.50Q301.45 99.93 302.26 101.73Q303.06 103.52 304.50 104.52Q305.95 105.51 307.87 105.51ZM342.66 98.79L342.66 98.79Q342.10 98.79 341.72 98.41Q341.34 98.03 341.34 97.48L341.34 97.48Q341.34 96.92 341.72 96.54Q342.10 96.16 342.66 96.16L342.66 96.16Q343.21 96.16 343.59 96.54Q343.97 96.92 343.97 97.48L343.97 97.48Q343.97 98.03 343.59 98.41Q343.21 98.79 342.66 98.79ZM377.59 88.66L377.59 88.66Q380.31 88.66 382.34 89.75Q384.37 90.85 385.50 92.84Q386.63 94.83 386.63 97.50L386.63 97.50Q386.63 100.17 385.50 102.16Q384.37 104.15 382.34 105.25Q380.31 106.34 377.59 106.34L377.59 106.34Q374.92 106.34 372.89 105.25Q370.87 104.15 369.74 102.16Q368.61 100.17 368.61 97.50L368.61 97.50Q368.61 94.83 369.74 92.84Q370.87 90.85 372.89 89.75Q374.92 88.66 377.59 88.66ZM377.59 105.51L377.59 105.51Q379.56 105.51 380.99 104.52Q382.43 103.52 383.23 101.73Q384.03 99.93 384.03 97.50L384.03 97.50Q384.03 95.07 383.23 93.27Q382.43 91.48 380.99 90.48Q379.56 89.49 377.59 89.49L377.59 89.49Q375.67 89.49 374.23 90.48Q372.78 91.48 371.98 93.27Q371.18 95.07 371.18 97.50L371.18 97.50Q371.18 99.93 371.98 101.73Q372.78 103.52 374.23 104.52Q375.67 105.51 377.59 105.51ZM398.15 91.72L398.95 88.61L406.41 105.85L403.57 105.85L398.15 91.72ZM392.25 104.23L393.73 104.23Q393.56 104.71 393.68 105.05Q393.80 105.39 394.08 105.58Q394.36 105.76 394.65 105.76L394.65 105.76L394.87 105.76L394.87 106L389.89 106L389.89 105.76Q389.89 105.76 390.00 105.76Q390.11 105.76 390.11 105.76L390.11 105.76Q390.67 105.76 391.27 105.41Q391.86 105.05 392.25 104.23L392.25 104.23ZM398.73 88.61L398.95 88.61L399.15 90.72L393.08 105.93L391.50 105.93L397.74 91.33Q397.76 91.28 397.92 90.95Q398.08 90.63 398.26 90.17Q398.44 89.70 398.59 89.27Q398.73 88.83 398.73 88.61L398.73 88.61ZM394.65 99.66L402.09 99.66L402.09 100.49L394.65 100.49L394.65 99.66ZM402.94 104.23L402.94 104.23L405.68 104.23Q406.07 105.05 406.66 105.41Q407.26 105.76 407.82 105.76L407.82 105.76Q407.82 105.76 407.91 105.76Q408.01 105.76 408.01 105.76L408.01 105.76L408.01 106L401.79 106L401.79 105.76L402.01 105.76Q402.50 105.76 402.86 105.36Q403.23 104.96 402.94 104.23ZM414.73 89L414.73 89L417.84 89Q419.56 89 420.81 89.49Q422.06 89.97 422.73 90.88Q423.40 91.79 423.40 93.08L423.40 93.08Q423.40 94.15 423.00 94.91Q422.60 95.68 421.96 96.13Q421.33 96.58 420.63 96.75L420.63 96.75Q421.89 96.92 422.85 97.55Q423.81 98.18 424.32 99.15Q424.83 100.12 424.83 101.39L424.83 101.39Q424.83 102.79 424.11 103.84Q423.40 104.88 422.04 105.44Q420.68 106 418.78 106L418.78 106L416.18 106Q416.18 106 416.20 105.76Q416.21 105.51 416.21 105.28Q416.21 105.05 416.21 105.05L416.21 105.05L418.37 105.05Q419.58 105.05 420.45 104.62Q421.31 104.18 421.77 103.30Q422.23 102.43 422.23 101.17L422.23 101.17Q422.23 99.90 421.77 99.09Q421.31 98.28 420.58 97.83Q419.85 97.38 418.96 97.20Q418.08 97.01 417.23 97.01L417.23 97.01L417.23 96.80Q417.79 96.80 418.42 96.65Q419.05 96.50 419.62 96.14Q420.19 95.78 420.54 95.08Q420.90 94.39 420.90 93.30L420.90 93.30Q420.90 92.16 420.51 91.39Q420.12 90.63 419.35 90.25Q418.59 89.87 417.50 89.87L417.50 89.87L414.97 89.87Q414.97 89.85 414.91 89.64Q414.85 89.44 414.79 89.22Q414.73 89 414.73 89ZM414.14 89L416.40 89L416.40 106L414.14 106L414.14 89ZM414.14 104.23L414.22 104.23L414.22 106L412.27 106L412.30 105.76Q412.35 105.76 412.46 105.76Q412.57 105.76 412.59 105.76L412.59 105.76Q413.22 105.76 413.68 105.31Q414.14 104.86 414.14 104.23L414.14 104.23ZM414.22 89L414.22 90.77L414.14 90.77Q414.14 90.14 413.68 89.69Q413.22 89.24 412.59 89.24L412.59 89.24Q412.57 89.24 412.46 89.24Q412.35 89.24 412.30 89.24L412.30 89.24L412.27 89L414.22 89ZM429.43 105.83L438.18 88.61L439.07 89.07L430.31 106.34L429.43 105.83ZM448.92 88.66L448.92 88.66Q449.33 88.66 449.87 88.71Q450.40 88.76 450.95 88.84Q451.50 88.93 451.92 89.01Q452.35 89.10 452.54 89.19L452.54 89.19L452.44 92.08L452.22 92.08Q452.22 90.89 451.37 90.19Q450.52 89.49 449.24 89.49L449.24 89.49Q447.88 89.49 447.04 90.28Q446.20 91.06 446.20 92.13L446.20 92.13Q446.18 92.67 446.48 93.26Q446.78 93.86 447.42 94.37L447.42 94.37L452.15 98.33Q453.00 98.98 453.35 99.84Q453.71 100.71 453.68 101.63L453.68 101.63Q453.63 103.77 452.25 105.05Q450.86 106.34 448.51 106.34L448.51 106.34Q447.76 106.34 446.89 106.19Q446.03 106.05 445.28 105.75Q444.53 105.44 444.06 104.96L444.06 104.96Q443.94 104.52 443.96 103.88Q443.97 103.23 444.10 102.55Q444.23 101.87 444.45 101.34L444.45 101.34L444.67 101.34Q444.55 102.58 445.02 103.55Q445.50 104.52 446.41 105.04Q447.32 105.56 448.51 105.51L448.51 105.51Q449.94 105.47 450.88 104.63Q451.81 103.79 451.81 102.43L451.81 102.43Q451.81 101.73 451.50 101.14Q451.18 100.56 450.52 100.10L450.52 100.10L446.01 96.26Q445.08 95.58 444.70 94.66Q444.31 93.74 444.36 92.81L444.36 92.81Q444.40 91.72 444.94 90.76Q445.47 89.80 446.48 89.23Q447.49 88.66 448.92 88.66ZM450.35 88.90L452.54 88.90L452.54 89.41L450.35 89.41L450.35 88.90ZM463.41 89L463.41 89L466.52 89Q468.27 89 469.44 89.57Q470.62 90.14 471.24 91.20Q471.86 92.25 471.86 93.69L471.86 93.69Q471.88 94.83 471.44 95.76Q470.99 96.70 470.23 97.33Q469.48 97.96 468.52 98.27Q467.56 98.57 466.54 98.47Q465.52 98.37 464.55 97.82L464.55 97.82L464.55 97.57Q464.55 97.57 464.93 97.61Q465.30 97.65 465.90 97.60Q466.49 97.55 467.14 97.31Q467.78 97.06 468.35 96.48Q468.92 95.90 469.21 94.90L469.21 94.90Q469.29 94.61 469.33 94.21Q469.38 93.81 469.36 93.44L469.36 93.44Q469.33 91.82 468.50 90.82Q467.66 89.83 466.13 89.83L466.13 89.83L463.65 89.83Q463.65 89.83 463.59 89.62Q463.53 89.41 463.47 89.21Q463.41 89 463.41 89ZM461.47 89L463.72 89L463.72 106L461.47 106L461.47 89ZM461.47 104.23L461.54 104.23L461.54 106L459.60 106L459.60 105.76Q459.60 105.76 459.75 105.76Q459.91 105.76 459.91 105.76L459.91 105.76Q460.54 105.76 460.99 105.31Q461.44 104.86 461.47 104.23L461.47 104.23ZM461.54 89L461.54 90.77L461.47 90.77Q461.47 90.14 461.00 89.69Q460.54 89.24 459.91 89.24L459.91 89.24Q459.91 89.24 459.77 89.24Q459.62 89.24 459.62 89.24L459.62 89.24L459.60 89L461.54 89ZM463.65 106L463.65 104.23L463.72 104.23Q463.75 104.86 464.20 105.31Q464.65 105.76 465.28 105.76L465.28 105.76Q465.30 105.76 465.45 105.76Q465.59 105.76 465.59 105.76L465.59 105.76L465.59 106L463.65 106ZM496.39 88.25L495.54 91.31L489.47 91.72L488.50 95.17Q490.20 94.76 491.67 94.89Q493.14 95.02 494.25 95.67Q495.37 96.31 495.98 97.43Q496.58 98.54 496.51 100.12L496.51 100.12Q496.44 101.90 495.65 103.16Q494.86 104.42 493.67 105.23Q492.48 106.05 491.14 106.46Q489.81 106.87 488.62 106.92Q487.43 106.97 486.68 106.75L486.68 106.75L486.72 106.51Q487.33 106.53 488.22 106.32Q489.10 106.10 490.08 105.61Q491.05 105.13 491.90 104.40Q492.75 103.67 493.32 102.66Q493.89 101.65 493.99 100.37L493.99 100.37Q494.11 98.76 493.21 97.80Q492.31 96.84 490.74 96.64Q489.18 96.43 487.23 97.11L487.23 97.11L487.02 97.01L488.93 89.87L494.23 89.46Q495.01 89.46 495.44 89.12Q495.88 88.78 496.15 88.25L496.15 88.25L496.39 88.25ZM512.29 88.25L511.44 91.31L505.36 91.72L504.39 95.17Q506.09 94.76 507.56 94.89Q509.03 95.02 510.15 95.67Q511.27 96.31 511.87 97.43Q512.48 98.54 512.41 100.12L512.41 100.12Q512.33 101.90 511.54 103.16Q510.76 104.42 509.57 105.23Q508.38 106.05 507.04 106.46Q505.70 106.87 504.51 106.92Q503.32 106.97 502.57 106.75L502.57 106.75L502.62 106.51Q503.23 106.53 504.11 106.32Q505.00 106.10 505.97 105.61Q506.94 105.13 507.79 104.40Q508.64 103.67 509.21 102.66Q509.78 101.65 509.88 100.37L509.88 100.37Q510.00 98.76 509.10 97.80Q508.21 96.84 506.64 96.64Q505.07 96.43 503.13 97.11L503.13 97.11L502.91 97.01L504.83 89.87L510.12 89.46Q510.90 89.46 511.34 89.12Q511.78 88.78 512.04 88.25L512.04 88.25L512.29 88.25ZM525.75 105.98L525.75 91.65L527.77 88.66L528.01 88.66L528.01 105.98L525.75 105.98ZM518.15 100.00L527.77 88.66L528.01 89.73L520.43 98.67L529.06 98.67Q529.74 98.67 529.98 98.52Q530.22 98.37 530.44 98.08L530.44 98.08L530.68 98.08L530.12 100.24L518.15 100.24L518.15 100.00ZM525.75 104.45L528.01 104.45Q528.01 104.98 528.41 105.37Q528.81 105.76 529.35 105.76L529.35 105.76L529.61 105.76L529.61 106L524.13 106L524.15 105.76L524.39 105.76Q524.95 105.76 525.35 105.38Q525.75 105.00 525.75 104.45L525.75 104.45ZM536.91 106.15L536.91 106.15Q536.35 106.15 535.98 105.77Q535.60 105.39 535.60 104.83L535.60 104.83Q535.60 104.28 535.98 103.90Q536.35 103.52 536.91 103.52L536.91 103.52Q537.47 103.52 537.85 103.90Q538.22 104.28 538.22 104.83L538.22 104.83Q538.22 105.39 537.85 105.77Q537.47 106.15 536.91 106.15ZM548.17 88.71L548.17 88.71Q549.72 88.66 550.85 89.13Q551.98 89.61 552.60 90.46Q553.22 91.31 553.22 92.45L553.22 92.45Q553.22 93.35 552.83 94.14Q552.44 94.93 551.81 95.47Q551.18 96.02 550.45 96.25Q549.72 96.48 549.07 96.31L549.07 96.31Q549.84 96.31 550.66 96.58Q551.47 96.84 552.18 97.40Q552.88 97.96 553.31 98.82Q553.73 99.69 553.73 100.83L553.73 100.83Q553.73 102.09 553.20 103.17Q552.66 104.25 551.73 105.06Q550.79 105.88 549.54 106.39Q548.29 106.90 546.86 107.01Q545.42 107.12 543.94 106.78L543.94 106.78L543.99 106.53Q545.45 106.56 546.75 106.15Q548.05 105.73 549.06 104.97Q550.06 104.20 550.65 103.11Q551.23 102.02 551.23 100.71L551.23 100.71Q551.23 99.30 550.57 98.41Q549.92 97.52 548.81 97.10Q547.71 96.67 546.35 96.67L546.35 96.67L546.40 96.43Q547.49 96.43 548.51 95.93Q549.53 95.44 550.17 94.51Q550.82 93.59 550.74 92.28L550.74 92.28Q550.69 91.53 550.35 90.89Q550.01 90.26 549.37 89.89Q548.73 89.51 547.76 89.53L547.76 89.53Q546.25 89.56 545.47 90.52Q544.70 91.48 544.77 93.08L544.77 93.08L544.53 93.08L543.92 90.43Q544.57 89.75 545.59 89.25Q546.61 88.76 548.17 88.71ZM559.89 89.05L559.21 92.38L559.45 92.38Q559.72 91.65 560.13 91.28Q560.54 90.92 561.27 90.92L561.27 90.92L568.31 90.92L566.35 95.95Q566.03 96.72 565.61 97.73Q565.18 98.74 564.71 99.88Q564.23 101.02 563.74 102.14Q563.24 103.26 562.81 104.25Q562.39 105.25 562.05 106L562.05 106L564.26 106Q564.43 105.22 564.76 104.15Q565.08 103.09 565.47 101.91Q565.86 100.73 566.25 99.59Q566.64 98.45 566.98 97.52Q567.32 96.60 567.51 96.07L567.51 96.07L570.23 89L559.89 89.05ZM575.76 89.05L575.08 92.38L575.32 92.38Q575.59 91.65 576.00 91.28Q576.41 90.92 577.14 90.92L577.14 90.92L584.19 90.92L582.22 95.95Q581.90 96.72 581.48 97.73Q581.05 98.74 580.58 99.88Q580.11 101.02 579.61 102.14Q579.11 103.26 578.68 104.25Q578.26 105.25 577.92 106L577.92 106L580.13 106Q580.30 105.22 580.63 104.15Q580.96 103.09 581.34 101.91Q581.73 100.73 582.12 99.59Q582.51 98.45 582.85 97.52Q583.19 96.60 583.38 96.07L583.38 96.07L586.10 89L575.76 89.05Z"/>
</svg>
